# Blender v2.90.0 OBJ File: ''
# www.blender.org
mtllib box.mtl
o Cube_Cube.001
v -3.000000 -0.000000 1.000000
v -3.000000 2.000000 1.000000
v -3.000000 1.800000 0.800000
v -3.000000 0.200000 0.800000
v -1.000000 2.000000 -1.000000
v -1.000000 0.000000 -1.000000
v -1.200000 0.200000 -1.000000
v -1.200000 1.800000 -1.000000
v -1.000000 2.000000 1.000000
v -1.000000 1.800000 0.800000
v -1.000000 1.800000 -0.800000
v -2.800000 0.200000 1.000000
v -2.800000 1.800000 1.000000
v -3.000000 0.000000 -1.000000
v -1.000000 -0.000000 1.000000
v -3.000000 2.000000 -1.000000
v -3.000000 0.200000 -0.800000
v -2.843857 0.324915 0.675085
v -2.843857 0.324915 -0.675085
v -1.000000 0.200000 -0.800000
v -1.000000 0.200000 0.800000
v -1.156143 0.324915 -0.675085
v -1.156143 0.324915 0.675085
v -2.800000 0.200000 -1.000000
v -2.800000 1.800000 -1.000000
v -2.675085 1.675085 -0.843857
v -2.675085 0.324915 -0.843857
v -3.000000 1.800000 -0.800000
v -1.156143 1.675085 -0.675085
v -1.200000 0.200000 1.000000
v -1.200000 1.800000 1.000000
v -1.156143 1.675085 0.675085
v -1.324915 1.675085 -0.843857
v -1.324915 0.324915 -0.843857
v -2.843857 1.675085 0.675085
v -2.843857 1.675085 -0.675085
v -1.324915 0.324915 0.843857
v -1.324915 1.675085 0.843857
v -2.675085 1.675085 0.843857
v -2.675085 0.324915 0.843857
vt 0.625000 1.000000
vt 0.375000 1.000000
vt 0.375000 1.000000
vt 0.375000 0.500000
vt 0.625000 0.500000
vt 0.625000 0.500000
vt 0.625000 0.750000
vt 0.625000 0.500000
vt 0.625000 1.000000
vt 0.125000 0.750000
vt 0.125000 0.500000
vt 0.875000 0.500000
vt 0.125000 0.750000
vt 0.125000 0.500000
vt 0.125000 0.500000
vt 0.375000 0.500000
vt 0.375000 0.750000
vt 0.625000 0.750000
vt 0.375000 0.750000
vt 0.375000 0.750000
vt 0.375000 0.500000
vt 0.875000 0.500000
vt 0.625000 0.250000
vt 0.375000 0.250000
vt 0.375000 0.250000
vt 0.625000 0.250000
vt 0.375000 0.250000
vt 0.875000 0.750000
vt 0.875000 0.750000
vt 0.625000 0.250000
vt 0.375000 0.500000
vt 0.125000 0.750000
vt 0.625000 0.750000
vt 0.375000 0.750000
vt 0.625000 0.500000
vt 0.625000 0.250000
vt 0.375000 0.500000
vt 0.625000 0.000000
vt 0.375000 0.250000
vt 0.375000 0.000000
vt 0.625000 0.750000
vt 0.375000 1.000000
vt 0.375000 0.750000
vt 0.125000 0.500000
vt 0.375000 1.000000
vt 0.625000 1.000000
vt 0.625000 1.000000
vt 0.375000 1.000000
vt 0.625000 0.500000
vt 0.875000 0.500000
vt 0.625000 0.750000
vt 0.875000 0.500000
vt 0.875000 0.750000
vt 0.125000 0.750000
vt 0.375000 0.250000
vt 0.625000 0.250000
vt 0.875000 0.750000
vt 0.125000 0.750000
vt 0.125000 0.500000
vt 0.625000 1.000000
vt 0.875000 0.500000
vt 0.875000 0.750000
vn -1.0000 -0.0000 0.0000
vn 0.0000 0.0000 -1.0000
vn 1.0000 -0.0000 0.0000
vn -0.0000 -0.0000 1.0000
vn 0.0000 -1.0000 -0.0000
vn 0.0000 1.0000 0.0000
vn -0.6247 0.7809 0.0000
vn 0.6247 0.7809 0.0000
vn 0.7809 0.0000 -0.6247
vn 0.6247 -0.0000 0.7809
vn 0.0000 0.7809 -0.6247
vn 0.7809 -0.0000 0.6247
vn 0.6247 -0.7809 -0.0000
vn -0.6247 0.0000 -0.7809
vn 0.0000 -0.7809 -0.6247
vn -0.7809 -0.0000 0.6247
vn 0.6247 0.0000 -0.7809
vn -0.6247 -0.7809 -0.0000
vn -0.7809 0.0000 -0.6247
vn 0.0000 0.7809 0.6247
vn -0.6247 -0.0000 0.7809
vn 0.0000 -0.7809 0.6247
usemtl None
s 1
f 2/1/1 4/2/1 1/3/1
f 6/4/2 8/5/2 5/6/2
f 9/7/3 11/8/3 5/6/3
f 1/3/4 13/9/4 2/1/4
f 6/4/5 1/10/5 14/11/5
f 16/12/6 9/7/6 5/6/6
f 4/13/7 19/14/7 17/15/7
f 5/6/3 20/16/3 6/4/3
f 15/17/3 10/18/3 9/7/3
f 6/4/3 21/19/3 15/17/3
f 20/16/8 23/20/8 21/19/8
f 14/11/2 7/21/2 6/4/2
f 5/6/2 25/22/2 16/12/2
f 16/23/2 24/24/2 14/25/2
f 25/26/9 27/27/9 24/24/9
f 16/12/1 3/28/1 2/29/1
f 1/10/1 17/15/1 14/11/1
f 14/25/1 28/30/1 16/23/1
f 11/8/10 22/31/10 20/16/10
f 15/17/4 12/32/4 1/10/4
f 2/29/4 31/33/4 9/7/4
f 9/7/4 30/34/4 15/17/4
f 29/35/3 23/20/3 22/31/3
f 26/36/2 34/37/2 27/27/2
f 35/38/1 19/39/1 18/40/1
f 38/41/4 40/42/4 37/43/4
f 24/44/11 34/37/11 7/21/11
f 12/45/12 39/46/12 13/9/12
f 10/18/13 29/35/13 11/8/13
f 3/47/14 18/48/14 4/2/14
f 25/22/15 33/49/15 26/50/15
f 31/33/16 37/43/16 30/34/16
f 21/19/17 32/51/17 10/18/17
f 28/52/18 35/53/18 3/28/18
f 7/21/19 33/49/19 8/5/19
f 12/32/20 37/43/20 40/54/20
f 17/55/21 36/56/21 28/30/21
f 13/57/22 38/41/22 31/33/22
f 2/1/1 3/47/1 4/2/1
f 6/4/2 7/21/2 8/5/2
f 9/7/3 10/18/3 11/8/3
f 1/3/4 12/45/4 13/9/4
f 6/4/5 15/17/5 1/10/5
f 16/12/6 2/29/6 9/7/6
f 4/13/7 18/58/7 19/14/7
f 5/6/3 11/8/3 20/16/3
f 15/17/3 21/19/3 10/18/3
f 6/4/3 20/16/3 21/19/3
f 20/16/8 22/31/8 23/20/8
f 14/11/2 24/44/2 7/21/2
f 5/6/2 8/5/2 25/22/2
f 16/23/2 25/26/2 24/24/2
f 25/26/9 26/36/9 27/27/9
f 16/12/1 28/52/1 3/28/1
f 1/10/1 4/13/1 17/15/1
f 14/25/1 17/55/1 28/30/1
f 11/8/10 29/35/10 22/31/10
f 15/17/4 30/34/4 12/32/4
f 2/29/4 13/57/4 31/33/4
f 9/7/4 31/33/4 30/34/4
f 29/35/3 32/51/3 23/20/3
f 26/36/2 33/49/2 34/37/2
f 35/38/1 36/56/1 19/39/1
f 38/41/4 39/46/4 40/42/4
f 24/44/11 27/59/11 34/37/11
f 12/45/12 40/42/12 39/46/12
f 10/18/13 32/51/13 29/35/13
f 3/47/14 35/60/14 18/48/14
f 25/22/15 8/5/15 33/49/15
f 31/33/16 38/41/16 37/43/16
f 21/19/17 23/20/17 32/51/17
f 28/52/18 36/61/18 35/53/18
f 7/21/19 34/37/19 33/49/19
f 12/32/20 30/34/20 37/43/20
f 17/55/21 19/39/21 36/56/21
f 13/57/22 39/62/22 38/41/22
